<svg viewBox="0 0 500 500" xmlns="http://www.w3.org/2000/svg">
  <path d="M 30 278 C 30 278 50.647 194.343 85 178 C 101.827 169.995 121.368 187.747 140 188 C 161.92 188.298 185.334 168.314 205 178 C 239.128 194.809 245.511 237.826 245.511 237.826"></path>
  <circle cx="131.059" cy="88.856" r="60.783" transform="matrix(1.151647, 0, 0, 1.157264, -8.933851, 5.169579)"></circle>
  <rect x="150" y="238" width="320" height="210" rx="20" ry="20"></rect>
  <rect x="190" y="268" width="100" height="100"></rect>
  <line x1="320" y1="268" x2="440" y2="268"></line>
  <line x1="320" y1="293" x2="440" y2="293"></line>
  <line x1="320" y1="318" x2="440" y2="318"></line>
  <line x1="320" y1="343" x2="440" y2="343"></line>
  <line x1="320" y1="368" x2="440" y2="368"></line>
  <line x1="190" y1="398" x2="440" y2="398"></line>
  <line x1="190" y1="423" x2="440" y2="423"></line>
</svg>