<?xml version="1.0" encoding="utf-8"?>
<svg viewBox="0 0 500 500" xmlns="http://www.w3.org/2000/svg">
  <path d="M 300 350 L 300 475 C 300 477.761 297.761 480 295 480 L 25 480 C 22.239 480 20 477.761 20 475 L 20 155 C 20 152.239 22.239 150 25 150 L 200 150" style="fill: none; stroke: rgb(186, 218, 85);"/>
  <rect style="fill: none; stroke: rgb(186, 218, 85);" x="200" y="20" width="280" height="330" rx="5" ry="5"/>
  <line style="stroke: rgb(0, 0, 0);" x1="230" y1="80" x2="450" y2="80"/>
  <line style="stroke: rgb(0, 0, 0);" x1="230" y1="130" x2="450" y2="130"/>
  <line style="stroke: rgb(0, 0, 0);" x1="230" y1="180" x2="450" y2="180"/>
  <line style="stroke: rgb(0, 0, 0);" x1="230" y1="230" x2="450" y2="230"/>
  <line style="stroke: rgb(0, 0, 0);" x1="230" y1="280" x2="450" y2="280"/>
  <line style="stroke: rgb(0, 0, 0);" x1="50" y1="415" x2="270" y2="415"/>
  <line style="stroke: rgb(0, 0, 0);" x1="50" y1="365" x2="270" y2="365"/>
  <line style="stroke: rgb(0, 0, 0);" x1="50" y1="315" x2="200" y2="315"/>
  <line style="stroke: rgb(0, 0, 0);" x1="50" y1="265" x2="200" y2="265"/>
  <line style="stroke: rgb(0, 0, 0);" x1="50" y1="215" x2="200" y2="215"/>
</svg>