<?xml version="1.0" encoding="utf-8"?>
<svg viewBox="0 0 500 500" xmlns="http://www.w3.org/2000/svg">
  <path d="M 234.51 185.864 C 248.21 185.864 257.675 189.275 263.475 193.928 C 269.275 198.575 272.175 204.298 272.175 211.098 C 272.175 219.698 268.475 226.698 261.075 232.098 C 258.275 234.198 254.875 236.098 250.875 237.798 L 248.475 238.848 C 247.775 239.148 247.525 242.706 246.872 246.553 C 246.225 250.406 245.475 251.698 245.475 253.398 C 244.975 253.898 243.552 254.475 241.205 255.128 C 238.852 255.775 236.898 256.098 235.345 256.098 C 233.798 256.098 232.625 255.998 231.825 255.798 C 230.725 253.998 230.033 250.098 230.033 244.098 C 230.033 238.098 230.425 234.248 230.925 232.548 C 246.725 228.748 255.906 222.348 255.906 213.348 C 255.906 205.548 247.425 201.648 233.025 201.648 C 227.925 201.648 224.225 202.148 221.925 203.148 C 221.325 202.148 221.025 200.048 221.025 196.848 C 221.025 193.648 221.475 190.948 222.375 188.748 C 225.075 187.548 229.31 185.864 234.51 185.864 Z M 229.945 283.768 C 227.998 281.821 227.025 279.448 227.025 276.648 C 227.025 273.848 227.998 271.475 229.945 269.528 C 231.898 267.575 234.275 266.598 237.075 266.598 C 239.875 266.598 242.252 267.575 244.205 269.528 C 246.152 271.475 247.125 273.848 247.125 276.648 C 247.125 279.448 246.152 281.821 244.205 283.768 C 242.252 285.721 239.875 286.698 237.075 286.698 C 234.275 286.698 231.898 285.721 229.945 283.768 Z" transform="matrix(4.628736972808838, 0, 0, 4.252139091491699, -893.1895751953125, -748.3788452148438)" style="white-space: pre; fill: rgb(186, 218, 85); fill-rule: nonzero;"/>
</svg>