<?xml version="1.0" encoding="utf-8"?>
<svg viewBox="0 0 500 500" xmlns="http://www.w3.org/2000/svg" xmlns:bx="https://boxy-svg.com">
  <path style="fill: rgb(216, 216, 216); stroke: rgb(0, 0, 0);" d="M 200 380 C 200 380 100 300 100 180 C 100 100 200 100 250 100 C 300 100 400 100 400 180 C 400 300 300 380 300 380 L 200 380 Z"/>
  <path style="fill: rgb(216, 216, 216);" d="M 200 380 H 300 V 467 A 13 13 0 0 1 287 480 H 213 A 13 13 0 0 1 200 467 V 380 Z" bx:shape="rect 200 380 100 100 0 0 13 13 1@fc1f25bf"/>
  <line style="stroke: rgb(0, 0, 0);" x1="145" y1="375" x2="110" y2="425"/>
  <line style="stroke: rgb(0, 0, 0);" x1="355" y1="375" x2="390" y2="425"/>
  <line style="stroke: rgb(0, 0, 0);" x1="90" y1="300" x2="25" y2="334"/>
  <line style="stroke: rgb(0, 0, 0);" x1="410" y1="300" x2="475" y2="335"/>
  <line style="stroke: rgb(0, 0, 0);" x1="80" y1="220" x2="15" y2="220"/>
  <line style="stroke: rgb(0, 0, 0);" x1="420" y1="220" x2="485" y2="220"/>
  <line style="stroke: rgb(0, 0, 0);" x1="80" y1="140" x2="20" y2="105"/>
  <line style="stroke: rgb(0, 0, 0);" x1="420" y1="140" x2="480" y2="105"/>
  <line style="stroke: rgb(0, 0, 0);" x1="355" y1="75" x2="391" y2="25"/>
  <line style="stroke: rgb(0, 0, 0);" x1="145" y1="75" x2="110" y2="25"/>
  <line style="stroke: rgb(0, 0, 0);" x1="250" y1="65" x2="250" y2="15"/>
  <line style="stroke: rgb(0, 0, 0);" x1="210" y1="400" x2="290" y2="406"/>
  <line style="stroke: rgb(0, 0, 0);" x1="210" y1="420" x2="290" y2="425"/>
  <line style="stroke: rgb(0, 0, 0);" x1="210" y1="440" x2="290" y2="445"/>
  <line style="stroke: rgb(0, 0, 0);" x1="210" y1="460" x2="290" y2="465"/>
  <path d="M 220 380 L 170 230 L 189 215 L 202 235 L 214 215 L 226 235 L 238 215 L 250 235 L 264 215 L 276 235 L 288 215 L 300 235 L 311 215 L 330 230 L 280 380" style="fill: rgb(216, 216, 216); stroke: rgb(0, 0, 0);"/>
</svg>