<?xml version="1.0" encoding="utf-8"?>
<svg viewBox="0 0 500 500" xmlns="http://www.w3.org/2000/svg">
  <path d="M 130 350 C 130 350 142.475 231.654 200 200 C 214.76 191.878 233.153 207.376 250 207.376 C 266.847 207.376 285.24 191.878 300 200 C 357.525 231.654 370 350 370 350" style="fill: rgb(216, 216, 216); stroke: rgb(0, 0, 0);"/>
  <circle style="fill: rgb(216, 216, 216);" cx="252.035" cy="146.277" r="52.035"/>
  <circle style="stroke: rgb(186, 218, 85); fill: none;" cx="250.404" cy="250.059" r="230"/>
  <path d="M 93.904 85.096 L 93.904 146.5 L 28.904 146.496" style="fill: none; stroke: rgb(186, 218, 85);" transform="matrix(-0.000001, -1, 1, -0.000001, -55.095939, 177.904116)"/>
  <path d="M 425 35 L 425 100 L 360 100" style="fill: none; stroke: rgb(186, 218, 85);" transform="matrix(1, -0.000001, 0.000001, 1, -0.00007, 0.000395)"/>
  <path d="M 137.408 395 L 137.404 460 L 72.808 460" style="fill: none; stroke: rgb(186, 218, 85);" transform="matrix(-1, 0.000001, -0.000001, -1, 214.808436, 859.999893)"/>
  <path d="M 472 349 L 472 414 L 407 414" style="fill: none; stroke: rgb(186, 218, 85);" transform="matrix(0.000001, 1, -1, 0.000001, 825.999558, -58.000384)"/>
</svg>