<?xml version="1.0" encoding="utf-8"?>
<svg viewBox="0 0 500 500" xmlns="http://www.w3.org/2000/svg">
  <path style="stroke: rgb(0, 0, 0); fill: none; stroke-width: 3px;" d="M 135.275 70 C 23.056 70 20 160.679 20 251.36 C 20 342.042 20 430 134.724 430 C 249.45 430 250 342.042 250 251.36 C 250 160.679 246.39 70 134.724 70 L 135.275 70 Z"/>
  <rect style="fill: none; stroke: rgb(0, 0, 0);" x="120" y="120" width="30" height="85.511" rx="15" ry="15"/>
  <path d="M 340.003 124.996 L 396.261 64.841 C 401.755 58.393 407.247 58.393 412.739 64.841 L 465.003 125.005" style="fill: none; stroke: rgb(0, 0, 0);" transform="matrix(1, -0.000077, 0.000077, 1, -0.007122, 0.030993)"/>
  <path d="M 340.003 190.006 L 396.261 129.851 C 401.755 123.403 407.247 123.403 412.739 129.851 L 465.003 190.015" style="fill: none; stroke: rgb(0, 0, 0);" transform="matrix(1, -0.000077, 0.000077, 1, -0.012127, 0.030993)"/>
  <path d="M 340.003 424.996 L 396.261 364.841 C 401.755 358.393 407.247 358.393 412.739 364.841 L 465.003 425.005" style="fill: none; stroke: rgb(0, 0, 0);" transform="matrix(-1, 0.000077, -0.000077, -1, 805.036203, 784.979016)"/>
  <path d="M 340.003 359.986 L 396.261 299.831 C 401.755 293.383 407.247 293.383 412.739 299.831 L 465.003 359.995" style="fill: none; stroke: rgb(0, 0, 0);" transform="matrix(-1, 0.000077, -0.000077, -1, 805.031197, 654.958997)"/>
</svg>