<?xml version="1.0" encoding="utf-8"?>
<svg viewBox="0 0 500 500" xmlns="http://www.w3.org/2000/svg" xmlns:bx="https://boxy-svg.com">
  <path d="M 647.395 67.011 Q 651.921 60.601 656.446 67.011 L 737.912 182.396 Q 742.438 188.806 733.386 188.806 L 570.455 188.806 Q 561.403 188.806 565.929 182.396 Z" style="fill: rgb(216, 216, 216);" transform="matrix(1, -0.000037, 0.000037, 1, -259.423523, 11.221359)" bx:shape="triangle 561.403 60.601 181.035 128.205 0.5 0.05 1@9316084b"/>
  <path d="M 647.394 67.012 Q 651.92 60.602 656.446 67.012 L 737.911 182.397 Q 742.437 188.807 733.385 188.807 L 570.455 188.807 Q 561.403 188.807 565.929 182.397 Z" style="fill: rgb(216, 216, 216);" transform="matrix(-1, 0.000037, -0.000037, -1, 1044.427856, 488.786133)" bx:shape="triangle 561.403 60.602 181.034 128.205 0.5 0.05 1@3d37d123"/>
  <rect style="fill: rgb(216, 216, 216);" x="20" y="90" width="225" height="20" rx="3" ry="3"/>
  <rect style="fill: rgb(216, 216, 216);" x="20" y="190" width="225" height="20" rx="3" ry="3"/>
  <rect style="fill: rgb(216, 216, 216);" x="20" y="290" width="225" height="20" rx="3" ry="3"/>
  <rect style="fill: rgb(216, 216, 216);" x="20" y="390" width="225" height="20" rx="3" ry="3"/>
</svg>